<svg width="127" height="46" viewBox="0 0 127 46" fill="none" xmlns="http://www.w3.org/2000/svg">
<g clip-path="url(#clip0_3_3)">
<path d="M62.2608 12.54C62.2608 12.7133 62.0474 12.94 61.6208 13.22C61.2074 13.5 60.6474 13.82 59.9408 14.18C59.2341 14.54 58.4541 14.9267 57.6008 15.34C56.7608 15.7533 55.9141 16.18 55.0608 16.62C55.7808 17.1267 56.5008 17.6 57.2208 18.04C57.9408 18.48 58.5941 18.88 59.1808 19.24C59.7808 19.6 60.2541 19.92 60.6008 20.2C60.9608 20.4667 61.1408 20.6867 61.1408 20.86C61.1408 21.1133 61.0474 21.36 60.8608 21.6C60.6741 21.8267 60.3741 21.94 59.9608 21.94C59.8408 21.94 59.5941 21.86 59.2208 21.7C58.8474 21.5267 58.3941 21.3 57.8608 21.02C57.3274 20.7267 56.7474 20.4 56.1208 20.04C55.5074 19.68 54.8874 19.3 54.2608 18.9C53.6474 18.4867 53.0741 18.08 52.5408 17.68C52.3008 17.5067 52.1341 17.3333 52.0408 17.16C51.9608 16.9733 51.9208 16.8 51.9208 16.64C51.9208 16.4133 51.9808 16.2 52.1008 16C52.2341 15.7867 52.4541 15.5933 52.7608 15.42C53.3741 15.0467 54.0274 14.68 54.7208 14.32C55.4274 13.9467 56.1274 13.6 56.8208 13.28C57.5274 12.9467 58.1874 12.66 58.8008 12.42C59.4141 12.1667 59.9341 11.9667 60.3608 11.82C60.8008 11.6733 61.1008 11.6 61.2608 11.6C61.6341 11.6 61.8941 11.68 62.0408 11.84C62.1874 11.9867 62.2608 12.22 62.2608 12.54ZM65.8738 20.44C65.6871 20.44 65.5204 20.3667 65.3738 20.22C65.2404 20.06 65.1738 19.7733 65.1738 19.36C65.1738 19.0667 65.2271 18.6067 65.3338 17.98C65.4404 17.3533 65.5871 16.6333 65.7738 15.82C65.9738 14.9933 66.2004 14.1333 66.4538 13.24C66.7071 12.3333 66.9804 11.4467 67.2738 10.58C67.5671 9.7 67.8671 8.90667 68.1738 8.2C68.3204 7.85333 68.5471 7.59333 68.8538 7.42C69.1738 7.23333 69.5204 7.14 69.8938 7.14C70.2804 7.14 70.5604 7.32 70.7338 7.68C70.9071 8.04 70.9938 8.43333 70.9938 8.86C70.9938 9.02 70.9138 9.32 70.7538 9.76C70.6071 10.2 70.4071 10.7333 70.1538 11.36C69.9004 11.9867 69.6204 12.6667 69.3138 13.4C69.0204 14.12 68.7204 14.8533 68.4138 15.6C68.1204 16.3333 67.8471 17.0333 67.5938 17.7C67.3404 18.3667 67.1338 18.9533 66.9738 19.46C66.8671 19.82 66.7204 20.0733 66.5338 20.22C66.3604 20.3667 66.1404 20.44 65.8738 20.44ZM64.8338 26.02C64.6738 26.02 64.4871 25.98 64.2738 25.9C64.0604 25.82 63.8738 25.6267 63.7138 25.32C63.5671 25.0267 63.4938 24.5533 63.4938 23.9C63.4938 23.3933 63.6538 23.0067 63.9738 22.74C64.2938 22.4733 64.7204 22.34 65.2538 22.34C65.7071 22.34 66.0538 22.4667 66.2938 22.72C66.5471 22.9733 66.6738 23.3333 66.6738 23.8C66.6738 24.2267 66.5671 24.6067 66.3538 24.94C66.1538 25.2733 65.9071 25.5333 65.6138 25.72C65.3338 25.92 65.0738 26.02 64.8338 26.02ZM82.2667 17.68C81.6401 18.0933 80.9601 18.5067 80.2267 18.92C79.5067 19.32 78.7801 19.7 78.0467 20.06C77.3134 20.42 76.6334 20.7467 76.0067 21.04C75.3801 21.32 74.8467 21.54 74.4067 21.7C73.9667 21.86 73.6801 21.94 73.5467 21.94C73.2667 21.94 73.0201 21.8533 72.8067 21.68C72.5934 21.5067 72.4867 21.2933 72.4867 21.04C72.4867 20.8267 72.7001 20.56 73.1267 20.24C73.5667 19.92 74.1401 19.56 74.8467 19.16C75.5534 18.76 76.3334 18.3333 77.1867 17.88C78.0534 17.4267 78.9134 16.96 79.7667 16.48C79.0601 16.0267 78.3601 15.6 77.6667 15.2C76.9867 14.8 76.3601 14.44 75.7867 14.12C75.2267 13.7867 74.7801 13.5 74.4467 13.26C74.1134 13.0067 73.9467 12.8067 73.9467 12.66C73.9467 12.3533 74.0401 12.1 74.2267 11.9C74.4134 11.7 74.7001 11.6 75.0867 11.6C75.1934 11.6 75.4267 11.6733 75.7867 11.82C76.1467 11.9667 76.5867 12.1667 77.1067 12.42C77.6267 12.6733 78.1867 12.9667 78.7867 13.3C79.4001 13.62 80.0067 13.96 80.6067 14.32C81.2201 14.68 81.7867 15.04 82.3067 15.4C82.5734 15.5867 82.7534 15.78 82.8467 15.98C82.9534 16.1667 83.0067 16.3467 83.0067 16.52C83.0067 16.72 82.9467 16.92 82.8267 17.12C82.7201 17.3067 82.5334 17.4933 82.2667 17.68Z" fill="#DF5134"/>
<path d="M63.4408 32.7705C63.5607 32.7724 63.6793 32.8624 63.7965 33.0403C63.9056 33.218 63.9857 33.4673 64.0365 33.7882C64.0871 34.1251 64.133 34.5098 64.174 34.9426C64.2151 35.3753 64.2483 35.7999 64.2736 36.2163C64.2989 36.6328 64.317 37.0011 64.3279 37.3213C64.3388 37.6415 64.3433 37.8576 64.3415 37.9696C64.3348 38.3856 64.2659 38.6925 64.1347 38.8904C63.9954 39.0962 63.8217 39.1975 63.6138 39.1941C63.4698 39.1918 63.3664 39.1501 63.3037 39.0691C63.2409 38.9961 63.2116 38.8276 63.2158 38.5637C63.2186 38.3877 63.2183 38.1596 63.2148 37.8795C63.2113 37.5995 63.2042 37.2953 63.1934 36.9671C63.1837 36.5749 63.1744 36.1587 63.1654 35.7185C63.1564 35.2863 63.1512 34.8581 63.15 34.4341C62.9529 34.7509 62.7273 35.1034 62.473 35.4913C62.2107 35.8792 61.9444 36.275 61.6739 36.6787C61.4032 37.0904 61.1409 37.4822 60.8869 37.8542C60.6329 38.2262 60.4077 38.5506 60.2112 38.8275C60.0147 39.1044 59.8635 39.306 59.7574 39.4323C59.6189 39.5901 59.4931 39.7001 59.3801 39.7623C59.2591 39.8244 59.1546 39.8547 59.0666 39.8533C58.9466 39.8513 58.8513 39.8058 58.7808 39.7167C58.7022 39.6274 58.6642 39.5028 58.6667 39.3428C58.6683 39.2468 58.69 39.1391 58.7319 39.0198C58.7657 38.9083 58.8276 38.7933 58.9175 38.6747C59.1387 38.3502 59.4048 37.9705 59.7159 37.5354C60.0269 37.1003 60.3502 36.6494 60.6857 36.1828C61.0212 35.7161 61.3485 35.2613 61.6677 34.8183C61.9867 34.3834 62.2649 33.9998 62.5023 33.6676C62.92 33.0662 63.2328 32.7672 63.4408 32.7705Z" fill="#5CC15C"/>
<path d="M6.84375 45C5.4375 45 4.21875 44.7344 3.1875 44.2031C2.15625 43.6615 1.35417 42.9375 0.78125 42.0312C0.21875 41.125 -0.0625 40.1302 -0.0625 39.0469V29.5469C-0.0625 28.4531 0.21875 27.4583 0.78125 26.5625C1.35417 25.6562 2.15625 24.9375 3.1875 24.4062C4.21875 23.8646 5.4375 23.5938 6.84375 23.5938H11.6562C13.0625 23.5938 14.2812 23.8646 15.3125 24.4062C16.3542 24.9375 17.1562 25.6562 17.7188 26.5625C18.2812 27.4583 18.5625 28.4531 18.5625 29.5469V39.0469C18.5625 40.1302 18.2812 41.125 17.7188 42.0312C17.1562 42.9375 16.3542 43.6615 15.3125 44.2031C14.2812 44.7344 13.0625 45 11.6562 45H6.84375ZM8.15625 37.9219H12.0625L13.6406 37.7344L14.6562 36.75L14.875 35.4062V31.2969H10.3438V32.9688H13.2188V35.1719C13.1667 35.3385 13.1302 35.4948 13.1094 35.6406C13.0885 35.7865 13.0521 35.9427 13 36.1094L11.9688 36.2656H8.1875L7.23438 36.1094L7.01562 35.1094V27.7188L7.17188 26.8594L8.1875 26.625H12.25L13.8594 26.8906L14.1719 25.2188L12.3594 25H8.15625L6.5625 25.25L5.5625 26.25L5.34375 27.5625V35.4062L5.5625 36.75L6.59375 37.7344L8.15625 37.9219ZM25.3438 45C23.9375 45 22.7188 44.7344 21.6875 44.2031C20.6562 43.6615 19.8542 42.9375 19.2812 42.0312C18.7188 41.125 18.4375 40.1302 18.4375 39.0469V29.5469C18.4375 28.4531 18.7188 27.4583 19.2812 26.5625C19.8542 25.6562 20.6562 24.9375 21.6875 24.4062C22.7188 23.8646 23.9375 23.5938 25.3438 23.5938H30.1562C31.5625 23.5938 32.7812 23.8646 33.8125 24.4062C34.8542 24.9375 35.6562 25.6562 36.2188 26.5625C36.7812 27.4583 37.0625 28.4531 37.0625 29.5469V39.0469C37.0625 40.1302 36.7812 41.125 36.2188 42.0312C35.6562 42.9375 34.8542 43.6615 33.8125 44.2031C32.7812 44.7344 31.5625 45 30.1562 45H25.3438ZM24.0938 37.9219H33.125V36.2656H29.4531V26.6562H33.125V25H24.0938V26.6562H27.7812V36.2656H24.0938V37.9219ZM43.8438 45C42.4375 45 41.2188 44.7344 40.1875 44.2031C39.1562 43.6615 38.3542 42.9375 37.7812 42.0312C37.2188 41.125 36.9375 40.1302 36.9375 39.0469V29.5469C36.9375 28.4531 37.2188 27.4583 37.7812 26.5625C38.3542 25.6562 39.1562 24.9375 40.1875 24.4062C41.2188 23.8646 42.4375 23.5938 43.8438 23.5938H48.6562C50.0625 23.5938 51.2812 23.8646 52.3125 24.4062C53.3542 24.9375 54.1562 25.6562 54.7188 26.5625C55.2812 27.4583 55.5625 28.4531 55.5625 29.5469V39.0469C55.5625 40.1302 55.2812 41.125 54.7188 42.0312C54.1562 42.9375 53.3542 43.6615 52.3125 44.2031C51.2812 44.7344 50.0625 45 48.6562 45H43.8438ZM41 37.9219H42.6719V26.7969L43.4375 26.6562H45.2188L45.8906 26.7969V33.4219H47.5625V26.7969L48.2344 26.6562H50.0312L50.7969 26.7969V37.9219H52.4531V26.2188L51.4688 25.2188L50.1562 25H48.1094L47.2656 25.25L46.7344 26.3281L46.2188 25.25L45.3594 25H43.3125L42 25.2188L41 26.2188V37.9219ZM75.8438 45C74.4375 45 73.2188 44.7344 72.1875 44.2031C71.1562 43.6615 70.3542 42.9375 69.7812 42.0312C69.2188 41.125 68.9375 40.1302 68.9375 39.0469V29.5469C68.9375 28.4531 69.2188 27.4583 69.7812 26.5625C70.3542 25.6562 71.1562 24.9375 72.1875 24.4062C73.2188 23.8646 74.4375 23.5938 75.8438 23.5938H80.6562C82.0625 23.5938 83.2812 23.8646 84.3125 24.4062C85.3542 24.9375 86.1562 25.6562 86.7188 26.5625C87.2812 27.4583 87.5625 28.4531 87.5625 29.5469V39.0469C87.5625 40.1302 87.2812 41.125 86.7188 42.0312C86.1562 42.9375 85.3542 43.6615 84.3125 44.2031C83.2812 44.7344 82.0625 45 80.6562 45H75.8438ZM74.125 37.9219H81.0938L82.7031 37.7344L83.6875 36.75L83.9062 35.4062V27.5312L83.6875 26.2188L82.7031 25.2188L81.0938 25H74.125V37.9219ZM75.75 36.2656V26.6562H81L82.0938 26.8281L82.25 27.75V35.2344L82.0312 36.1094L81 36.2656H75.75ZM94.3438 45C92.9375 45 91.7188 44.7344 90.6875 44.2031C89.6562 43.6615 88.8542 42.9375 88.2812 42.0312C87.7188 41.125 87.4375 40.1302 87.4375 39.0469V29.5469C87.4375 28.4531 87.7188 27.4583 88.2812 26.5625C88.8542 25.6562 89.6562 24.9375 90.6875 24.4062C91.7188 23.8646 92.9375 23.5938 94.3438 23.5938H99.1562C100.562 23.5938 101.781 23.8646 102.812 24.4062C103.854 24.9375 104.656 25.6562 105.219 26.5625C105.781 27.4583 106.062 28.4531 106.062 29.5469V39.0469C106.062 40.1302 105.781 41.125 105.219 42.0312C104.656 42.9375 103.854 43.6615 102.812 44.2031C101.781 44.7344 100.562 45 99.1562 45H94.3438ZM95.0156 37.4219H98.9531L100.781 37.1875L100.391 35.5L98.9219 35.75H95.125L94.125 35.5938L93.9062 34.6562V31.4375H101.203V27.5L100.969 26.1875L99.9844 25.1875L98.4062 25H95.0156L93.4531 25.1875L92.4688 26.1875L92.2344 27.5V34.9219L92.4688 36.2344L93.4531 37.2188L95.0156 37.4219ZM93.9062 29.7969V27.6875L94.0312 26.7969L95.125 26.625H98.3125L99.375 26.7969L99.5312 27.7188V29.7969H93.9062ZM112.844 45C111.438 45 110.219 44.7344 109.188 44.2031C108.156 43.6615 107.354 42.9375 106.781 42.0312C106.219 41.125 105.938 40.1302 105.938 39.0469V29.5469C105.938 28.4531 106.219 27.4583 106.781 26.5625C107.354 25.6562 108.156 24.9375 109.188 24.4062C110.219 23.8646 111.438 23.5938 112.844 23.5938H117.656C119.062 23.5938 120.281 23.8646 121.312 24.4062C122.354 24.9375 123.156 25.6562 123.719 26.5625C124.281 27.4583 124.562 28.4531 124.562 29.5469V39.0469C124.562 40.1302 124.281 41.125 123.719 42.0312C123.156 42.9375 122.354 43.6615 121.312 44.2031C120.281 44.7344 119.062 45 117.656 45H112.844ZM115.828 38.0312L116.875 37.7344L117.812 36.8125L120.875 25.3125L119.062 25L116.234 36.1719L115.891 36.2969L115.469 36.2031L112.656 25L110.828 25.3125L113.906 36.8125L114.828 37.7344L115.828 38.0312Z" fill="white"/>
</g>
<defs>
<clipPath id="clip0_3_3">
<rect width="127" height="46" fill="white"/>
</clipPath>
</defs>
</svg>
