<svg width="131" height="49" viewBox="0 0 131 49" fill="none" xmlns="http://www.w3.org/2000/svg">
<g clip-path="url(#clip0_3_3)">
<path d="M28.544 24.928C28.8213 24.928 29.0347 25.0667 29.184 25.344C29.3547 25.6 29.44 25.9307 29.44 26.336C29.44 26.8267 29.3653 27.2107 29.216 27.488C29.0667 27.7653 28.832 28.0107 28.512 28.224C27.2533 29.056 25.248 30.4213 22.496 32.32C21.664 36.736 20.5867 40.2133 19.264 42.752C17.9413 45.2907 16.2667 46.56 14.24 46.56C13.152 46.56 12.2667 46.2187 11.584 45.536C10.9013 44.8747 10.56 44 10.56 42.912C10.56 41.9093 10.784 40.896 11.232 39.872C11.68 38.848 12.512 37.664 13.728 36.32C14.9653 34.976 16.704 33.44 18.944 31.712L19.04 31.104C17.3547 31.808 15.7013 32.16 14.08 32.16C11.6907 32.16 9.58933 31.7013 7.776 30.784C5.96267 29.8453 4.55467 28.5227 3.552 26.816C2.54933 25.1093 2.048 23.1253 2.048 20.864C2.048 17.7067 2.64533 14.9227 3.84 12.512C5.03467 10.08 6.67733 8.20267 8.768 6.88C10.88 5.536 13.2373 4.864 15.84 4.864C18.336 4.864 20.2027 5.45067 21.44 6.624C22.6987 7.776 23.328 9.312 23.328 11.232C23.328 12.4907 23.0933 13.504 22.624 14.272C22.176 15.0187 21.5253 15.392 20.672 15.392C20.096 15.392 19.6267 15.2533 19.264 14.976C18.9227 14.6987 18.752 14.3147 18.752 13.824C18.752 13.6107 18.7947 13.248 18.88 12.736C19.008 12.1387 19.072 11.6693 19.072 11.328C19.072 10.432 18.7947 9.73867 18.24 9.248C17.7067 8.75733 16.8 8.512 15.52 8.512C13.9627 8.512 12.512 8.96 11.168 9.856C9.84533 10.752 8.77867 12.096 7.968 13.888C7.15733 15.6587 6.752 17.792 6.752 20.288C6.752 22.848 7.44533 24.832 8.832 26.24C10.24 27.6267 12.2667 28.32 14.912 28.32C16.384 28.32 17.92 27.9893 19.52 27.328L19.968 23.424H16.704C16.1067 23.424 15.648 23.2853 15.328 23.008C15.008 22.7093 14.848 22.2293 14.848 21.568C14.848 20.9707 15.008 20.5013 15.328 20.16C15.648 19.8187 16.0747 19.648 16.608 19.648H22.592C23.0613 19.648 23.4453 19.808 23.744 20.128C24.064 20.4267 24.192 20.864 24.128 21.44C24.064 22.1227 23.8507 23.6693 23.488 26.08L23.136 28.512C24.8427 27.232 26.4 26.1227 27.808 25.184C28.0853 25.0133 28.3307 24.928 28.544 24.928ZM14.592 43.456C15.1467 43.456 15.7547 42.8267 16.416 41.568C17.0773 40.3093 17.696 38.2827 18.272 35.488C16.6507 36.8747 15.4773 38.1227 14.752 39.232C14.048 40.3627 13.696 41.3547 13.696 42.208C13.696 43.04 13.9947 43.456 14.592 43.456ZM31.3218 14.976C30.4258 14.976 29.7538 14.7733 29.3058 14.368C28.8578 13.9413 28.6338 13.3547 28.6338 12.608C28.6338 11.8613 28.9218 11.2427 29.4978 10.752C30.0951 10.24 30.8311 9.984 31.7058 9.984C32.4951 9.984 33.1351 10.176 33.6258 10.56C34.1164 10.944 34.3618 11.488 34.3618 12.192C34.3618 13.0453 34.0844 13.728 33.5298 14.24C32.9751 14.7307 32.2391 14.976 31.3218 14.976ZM31.0658 32.16C29.6791 32.16 28.6658 31.6693 28.0258 30.688C27.4071 29.7067 27.0978 28.4053 27.0978 26.784C27.0978 25.824 27.2151 24.5973 27.4498 23.104C27.7058 21.5893 28.0258 20.1813 28.4098 18.88C28.6018 18.1973 28.8578 17.728 29.1778 17.472C29.4978 17.216 30.0098 17.088 30.7138 17.088C31.8018 17.088 32.3458 17.4507 32.3458 18.176C32.3458 18.7093 32.1431 19.9467 31.7378 21.888C31.2258 24.2347 30.9698 25.824 30.9698 26.656C30.9698 27.296 31.0551 27.7867 31.2258 28.128C31.3964 28.4693 31.6844 28.64 32.0898 28.64C32.4738 28.64 32.9538 28.3733 33.5298 27.84C34.1058 27.3067 34.8738 26.464 35.8338 25.312C36.0898 25.0133 36.3778 24.864 36.6978 24.864C36.9751 24.864 37.1884 24.992 37.3378 25.248C37.5084 25.504 37.5938 25.856 37.5938 26.304C37.5938 27.1573 37.3911 27.8187 36.9858 28.288C34.8738 30.8693 32.9004 32.16 31.0658 32.16ZM37.2768 32.16C36.4661 32.16 35.8901 31.7333 35.5488 30.88C35.2288 30.0267 35.0688 28.6613 35.0688 26.784C35.0688 24.0107 35.4634 21.376 36.2528 18.88C36.4448 18.2613 36.7541 17.8133 37.1808 17.536C37.6288 17.2373 38.2474 17.088 39.0368 17.088C39.4634 17.088 39.7621 17.1413 39.9328 17.248C40.1034 17.3547 40.1888 17.5573 40.1888 17.856C40.1888 18.1973 40.0288 18.9653 39.7088 20.16C39.4954 21.0133 39.3248 21.76 39.1968 22.4C39.0688 23.0187 38.9621 23.7973 38.8768 24.736C39.4528 23.072 40.1354 21.664 40.9248 20.512C41.7354 19.36 42.5568 18.5067 43.3888 17.952C44.2421 17.376 45.0421 17.088 45.7888 17.088C46.5354 17.088 47.0581 17.2587 47.3568 17.6C47.6768 17.9413 47.8368 18.464 47.8368 19.168C47.8368 19.8507 47.6341 21.088 47.2288 22.88C47.0581 23.648 46.9408 24.224 46.8768 24.608C47.5808 22.816 48.3594 21.3547 49.2128 20.224C50.0874 19.0933 50.9408 18.2933 51.7728 17.824C52.6048 17.3333 53.3728 17.088 54.0768 17.088C54.7594 17.088 55.2714 17.2693 55.6128 17.632C55.9754 17.9733 56.1568 18.4853 56.1568 19.168C56.1568 19.7227 56.0394 20.768 55.8048 22.304C55.5914 23.6053 55.4208 24.8427 55.2928 26.016C55.1648 27.168 55.1008 28.4587 55.1008 29.888C55.1008 30.6987 54.9301 31.2853 54.5888 31.648C54.2688 31.9893 53.7354 32.16 52.9888 32.16C52.2848 32.16 51.7728 31.9787 51.4528 31.616C51.1328 31.2533 50.9728 30.7093 50.9728 29.984C50.9728 29.1307 51.1221 27.7227 51.4208 25.76C51.6768 24.0533 51.8048 22.9653 51.8048 22.496C51.8048 22.1547 51.6874 21.984 51.4528 21.984C51.1754 21.984 50.7808 22.3467 50.2688 23.072C49.7568 23.776 49.2448 24.7147 48.7328 25.888C48.2208 27.0613 47.8048 28.2987 47.4848 29.6C47.2501 30.624 46.9728 31.3067 46.6528 31.648C46.3541 31.9893 45.8634 32.16 45.1808 32.16C44.4768 32.16 43.9434 31.8293 43.5808 31.168C43.2394 30.4853 43.0688 29.664 43.0688 28.704C43.0688 27.8933 43.1754 26.72 43.3888 25.184C43.5594 23.8187 43.6448 22.9227 43.6448 22.496C43.6448 22.1547 43.5274 21.984 43.2928 21.984C42.9728 21.984 42.5674 22.368 42.0768 23.136C41.5861 23.904 41.1061 24.8853 40.6368 26.08C40.1888 27.2747 39.8261 28.448 39.5488 29.6C39.3141 30.6027 39.0368 31.2853 38.7168 31.648C38.4181 31.9893 37.9381 32.16 37.2768 32.16ZM83.6998 32.16C82.4624 32.16 81.0651 32.0533 79.5078 31.84C78.6544 31.7333 78.0678 31.5093 77.7478 31.168C77.4278 30.8267 77.2891 30.272 77.3318 29.504C77.4811 27.392 77.8331 24.7893 78.3878 21.696C78.9424 18.5813 79.6144 15.584 80.4038 12.704C80.5531 12.1707 80.8518 11.7973 81.2998 11.584C81.7478 11.3707 82.3344 11.264 83.0598 11.264C84.3611 11.264 85.0118 11.6267 85.0118 12.352C85.0118 12.6507 84.9478 12.992 84.8198 13.376C84.2651 15.0827 83.7104 17.376 83.1558 20.256C82.6011 23.1147 82.2064 25.8453 81.9718 28.448C82.6118 28.512 83.3371 28.544 84.1478 28.544C87.8811 28.544 90.6651 27.4133 92.4998 25.152C94.3558 22.8907 95.2838 19.872 95.2838 16.096C95.2838 13.5573 94.5584 11.5947 93.1078 10.208C91.6571 8.82133 89.6091 8.128 86.9638 8.128C85.2571 8.128 83.5611 8.39467 81.8758 8.928C80.2118 9.46133 78.7078 10.1653 77.3638 11.04C77.0864 11.232 76.7878 11.328 76.4678 11.328C76.1051 11.328 75.8171 11.1787 75.6038 10.88C75.3904 10.56 75.2838 10.176 75.2838 9.728C75.2838 9.216 75.3691 8.8 75.5398 8.48C75.7104 8.13867 75.9984 7.82933 76.4038 7.552C77.8758 6.54933 79.6038 5.792 81.5878 5.28C83.5718 4.74667 85.4811 4.48 87.3158 4.48C89.9184 4.48 92.1691 4.93867 94.0678 5.856C95.9664 6.752 97.4278 8.07467 98.4518 9.824C99.4758 11.5733 99.9878 13.6853 99.9878 16.16C99.9878 19.3813 99.3478 22.1973 98.0678 24.608C96.7878 26.9973 94.9211 28.8533 92.4678 30.176C90.0144 31.4987 87.0918 32.16 83.6998 32.16ZM116.402 24.864C116.679 24.864 116.892 24.992 117.042 25.248C117.212 25.504 117.298 25.856 117.298 26.304C117.298 27.1573 117.095 27.8187 116.69 28.288C115.9 29.248 114.78 30.1333 113.33 30.944C111.9 31.7547 110.364 32.16 108.722 32.16C106.482 32.16 104.743 31.552 103.506 30.336C102.268 29.12 101.65 27.456 101.65 25.344C101.65 23.872 101.959 22.5067 102.578 21.248C103.196 19.968 104.05 18.9547 105.138 18.208C106.247 17.4613 107.495 17.088 108.882 17.088C110.119 17.088 111.111 17.4613 111.858 18.208C112.604 18.9333 112.978 19.9253 112.978 21.184C112.978 22.656 112.444 23.9253 111.378 24.992C110.332 26.0373 108.551 26.8693 106.034 27.488C106.567 28.4693 107.58 28.96 109.074 28.96C110.034 28.96 111.122 28.6293 112.338 27.968C113.575 27.2853 114.642 26.4 115.538 25.312C115.794 25.0133 116.082 24.864 116.402 24.864ZM108.338 20.224C107.548 20.224 106.876 20.6827 106.322 21.6C105.788 22.5173 105.522 23.6267 105.522 24.928V24.992C106.78 24.6933 107.772 24.2453 108.498 23.648C109.223 23.0507 109.586 22.3573 109.586 21.568C109.586 21.1627 109.468 20.8427 109.234 20.608C109.02 20.352 108.722 20.224 108.338 20.224ZM118.369 32.16C117.473 32.16 116.769 31.8293 116.257 31.168C115.745 30.4853 115.425 29.3973 115.297 27.904C115.041 24.9173 114.913 22.304 114.913 20.064V18.944C114.934 18.24 115.126 17.7493 115.489 17.472C115.851 17.1947 116.395 17.056 117.121 17.056C117.675 17.056 118.081 17.184 118.337 17.44C118.614 17.6747 118.753 18.08 118.753 18.656C118.753 21.1093 118.902 24.2987 119.201 28.224C120.118 26.6453 120.907 25.2053 121.569 23.904C122.251 22.5813 122.987 20.8427 123.777 18.688C124.011 18.048 124.321 17.6213 124.705 17.408C125.089 17.1733 125.569 17.056 126.145 17.056C127.318 17.056 127.905 17.4293 127.905 18.176C127.905 18.432 127.819 18.784 127.649 19.232C125.921 23.264 124.289 26.5173 122.753 28.992C122.006 30.208 121.291 31.04 120.609 31.488C119.926 31.936 119.179 32.16 118.369 32.16Z" fill="white"/>
<path d="M69.2269 37.4121L60.5287 34.7192L60.5257 33.5278L62.2548 33.7578L71.0996 36.4991L71.1025 37.6613L69.2269 37.4121ZM60.5401 39.2602L69.3233 36.9236L71.1002 36.7531L71.1033 37.9738L60.5447 41.0668L60.5401 39.2602ZM69.2398 30.9081L60.5135 28.7231L60.509 26.9262L71.0831 29.966L71.0862 31.1769L69.2398 30.9081ZM60.525 33.2641L69.0632 30.5863L71.0839 30.2785L71.0868 31.4308L62.2366 34.295L60.5282 34.5336L60.525 33.2641ZM71.2549 20.6589C71.2568 21.3945 71.1348 22.0622 70.8889 22.6617C70.6365 23.2548 70.283 23.7668 69.8283 24.1976C69.3737 24.622 68.8341 24.9488 68.2097 25.1783C67.5853 25.4077 66.902 25.5234 66.1598 25.5253L65.7496 25.5263C64.8902 25.5285 64.125 25.4034 63.4537 25.1512C62.776 24.899 62.2022 24.5554 61.7324 24.1204C61.2625 23.6854 60.9065 23.1915 60.6642 22.6387C60.4219 22.086 60.3 21.5133 60.2985 20.9209C60.2966 20.1657 60.4252 19.5143 60.6842 18.9668C60.9432 18.4128 61.3067 17.9594 61.7745 17.6066C62.2359 17.2539 62.7821 16.9921 63.4132 16.8212C64.0377 16.6504 64.7211 16.564 65.4633 16.5621L66.2739 16.5601L66.2938 24.4507L64.8192 24.4544L64.8038 18.3705L64.6671 18.3708C64.1984 18.398 63.7429 18.4968 63.3007 18.6672C62.8584 18.8311 62.4944 19.0924 62.2089 19.4512C61.9233 19.81 61.7813 20.2987 61.7829 20.9172C61.7839 21.3273 61.8728 21.7047 62.0494 22.0493C62.2196 22.3939 62.4742 22.6895 62.8134 22.936C63.1525 23.1826 63.5664 23.3736 64.0551 23.5091C64.5437 23.6446 65.107 23.7115 65.745 23.7099L66.1552 23.7089C66.6565 23.7076 67.1283 23.638 67.5707 23.5002C68.0065 23.3559 68.3901 23.1498 68.7215 22.8821C69.0528 22.6078 69.3124 22.2784 69.5002 21.8938C69.688 21.5027 69.7813 21.0597 69.7801 20.5649C69.7785 19.9269 69.6469 19.3869 69.3854 18.9448C69.1238 18.5028 68.7745 18.1163 68.3375 17.7854L69.2039 16.6894C69.5495 16.9164 69.879 17.2053 70.1924 17.5561C70.5058 17.9068 70.7608 18.3391 70.9574 18.853C71.154 19.3603 71.2532 19.9622 71.2549 20.6589ZM56.044 14.4863L56.0394 12.6699L68.9886 12.6372L71.0397 12.7883L71.0439 14.4484L56.044 14.4863ZM65.6502 5.50695L65.8553 5.50643C66.6235 5.50449 67.3367 5.59383 67.9947 5.77447C68.6462 5.95511 69.2133 6.22061 69.6959 6.57095C70.1786 6.9213 70.554 7.35004 70.8222 7.85718C71.0904 8.36431 71.2254 8.94666 71.227 9.60421C71.2287 10.2748 71.1163 10.8643 70.8897 11.3726C70.6566 11.8745 70.3224 12.2986 69.887 12.6447C69.4517 12.9909 68.9251 13.2689 68.3071 13.4788C67.6891 13.6822 66.9929 13.8239 66.2183 13.904L65.3199 13.9062C64.5384 13.8301 63.8382 13.6919 63.2192 13.4916C62.6002 13.2849 62.0722 13.0095 61.6351 12.6655C61.1915 12.3216 60.8552 11.8993 60.626 11.3986C60.3904 10.8978 60.2717 10.3155 60.2701 9.6514C60.2684 8.98734 60.3971 8.39782 60.6562 7.88284C60.9088 7.36788 61.2723 6.93728 61.7467 6.59102C62.2211 6.23826 62.7901 5.9699 63.4537 5.78593C64.1108 5.60198 64.843 5.50898 65.6502 5.50695ZM65.8599 7.32283L65.6548 7.32335C65.1275 7.32468 64.6328 7.37476 64.1708 7.47358C63.7023 7.57242 63.2926 7.7297 62.9415 7.94543C62.584 8.16118 62.3048 8.44509 62.1039 8.79716C61.8964 9.14925 61.7933 9.58245 61.7946 10.0968C61.7958 10.5525 61.8749 10.9494 62.032 11.2876C62.1891 11.6192 62.4014 11.9019 62.6689 12.1356C62.9299 12.3693 63.2299 12.5606 63.5688 12.7095C63.9012 12.8519 64.2465 12.9584 64.6048 13.0291L66.9583 13.0232C67.4138 12.9179 67.8528 12.7475 68.2754 12.5121C68.6914 12.2701 69.0324 11.9503 69.2983 11.5524C69.5642 11.1481 69.6964 10.6497 69.6949 10.0573C69.6937 9.56902 69.595 9.1526 69.3988 8.80804C69.1961 8.45699 68.9187 8.17448 68.5666 7.96053C68.2145 7.74006 67.8072 7.57833 67.3447 7.47533C66.8822 7.37233 66.3872 7.3215 65.8599 7.32283Z" fill="#DF5134"/>
<path d="M56.3766 35.1225C56.567 35.1836 56.7126 35.3844 56.8133 35.7248C56.9013 36.0612 56.9082 36.4976 56.834 37.0339C56.7516 37.5956 56.6384 38.2314 56.4944 38.9414C56.3505 39.6514 56.1978 40.3446 56.0366 41.021C55.8754 41.6975 55.7259 42.2937 55.5882 42.8096C55.4505 43.3255 55.3532 43.6724 55.2961 43.8501C55.0841 44.5102 54.8255 44.9664 54.5205 45.2185C54.1987 45.4792 53.8728 45.5566 53.5427 45.4506C53.3142 45.3772 53.1695 45.2607 53.1088 45.1012C53.0439 44.9543 53.0787 44.6714 53.2133 44.2525C53.303 43.9732 53.4128 43.6094 53.5428 43.161C53.6728 42.7126 53.8087 42.2241 53.9505 41.6954C54.1249 41.0652 54.3115 40.397 54.5103 39.6906C54.7051 38.9969 54.9042 38.3117 55.1076 37.6348C54.6398 38.0447 54.1093 38.4975 53.516 38.9931C52.91 39.4847 52.2935 39.987 51.6667 40.4998C51.0357 41.0254 50.4277 41.5233 49.8425 41.9936C49.2574 42.4639 48.7411 42.8722 48.2938 43.2187C47.8464 43.5652 47.5076 43.8134 47.2773 43.9636C46.98 44.1481 46.7261 44.2627 46.5158 44.3072C46.2927 44.3476 46.1114 44.3453 45.9717 44.3005C45.7813 44.2393 45.6514 44.1206 45.582 43.9443C45.4999 43.7638 45.4996 43.5467 45.5812 43.2928C45.6301 43.1405 45.7169 42.9793 45.8415 42.8092C45.9494 42.6478 46.1037 42.4943 46.3045 42.3487C46.8144 41.9383 47.4227 41.4615 48.1293 40.9182C48.8359 40.3749 49.5698 39.8124 50.3308 39.2306C51.0918 38.6487 51.8341 38.0819 52.5575 37.53C53.2768 36.9908 53.9062 36.5137 54.4455 36.0988C55.4028 35.3419 56.0465 35.0165 56.3766 35.1225Z" fill="#5CC15C"/>
</g>
<defs>
<clipPath id="clip0_3_3">
<rect width="131" height="49" fill="white"/>
</clipPath>
</defs>
</svg>
